<svg xmlns="http://www.w3.org/2000/svg" viewBox="0 0 345 120" role="img" aria-label="Naoii">
  <defs>
    <linearGradient id="markGrad" x1="15" y1="20" x2="100" y2="101" gradientUnits="userSpaceOnUse">
      <stop stop-color="#8B5CF6"/>
      <stop offset="1" stop-color="#6D4AFF"/>
    </linearGradient>
  </defs>
  
  <g aria-hidden="true">
    <path d="M24 88V29L78 88V29" fill="none" stroke="url(#markGrad)" stroke-width="16" stroke-linecap="round" stroke-linejoin="round"/>
    <circle cx="45" cy="87" r="4.2" fill="#2DD4D7"/>
    <circle cx="60" cy="87" r="4.2" fill="#2DD4D7"/>
    <path d="M39 98C47 107 60 107 69 98" fill="none" stroke="url(#markGrad)" stroke-width="6" stroke-linecap="round"/>
    <path d="M75 77L101 104L90 104L86 116L75 77Z" fill="#C7F04A" stroke="#C7F04A" stroke-linejoin="round"/>
    <g stroke="#D8FF55" stroke-width="4" stroke-linecap="round">
      <path d="M81 67V58"/>
      <path d="M92 70L99 63"/>
      <path d="M96 81H106"/>
      <path d="M71 69L65 62"/>
    </g>
  </g>
  <path d="M138.9 84.412V37.699Q138.9 36.111999999999995 139.90050000000002 35.11149999999999Q140.901 34.111 142.419 34.111Q143.178 34.111 143.937 34.4905Q144.696 34.87 145.179 35.422L175.263 75.442V37.699Q175.263 36.111999999999995 176.298 35.11149999999999Q177.333 34.111 178.851 34.111Q180.369 34.111 181.36950000000002 35.11149999999999Q182.37 36.111999999999995 182.37 37.699V84.412Q182.37 85.999 181.36950000000002 86.9995Q180.369 88.0 178.851 88.0Q178.092 88.0 177.2985 87.68950000000001Q176.505 87.379 176.091 86.758L146.007 46.738V84.412Q146.007 85.93 145.00650000000002 86.965Q144.006 88.0 142.419 88.0Q140.901 88.0 139.90050000000002 86.9995Q138.9 85.999 138.9 84.412Z M230.567 69.163V84.55Q230.567 86.068 229.56650000000002 87.0685Q228.56600000000003 88.069 227.048 88.069Q225.53000000000003 88.069 224.5295 87.0685Q223.529 86.068 223.529 84.55V81.997Q221.114 84.964 217.664 86.62Q214.214 88.276 210.21200000000002 88.276Q205.244 88.276 201.2075 85.792Q197.17100000000002 83.30799999999999 194.85950000000003 78.9265Q192.548 74.545 192.548 69.163Q192.548 63.781 195.032 59.3995Q197.51600000000002 55.018 201.8975 52.4995Q206.279 49.980999999999995 211.592 49.980999999999995Q216.905 49.980999999999995 221.21750000000003 52.4995Q225.53000000000003 55.018 228.04850000000002 59.3995Q230.567 63.781 230.567 69.163ZM223.805 69.163Q223.805 65.506 222.21800000000002 62.539Q220.63100000000003 59.572 217.8365 57.8815Q215.042 56.191 211.592 56.191Q208.142 56.191 205.3475 57.8815Q202.553 59.572 200.9315 62.539Q199.31 65.506 199.31 69.163Q199.31 72.82 200.9315 75.7525Q202.553 78.685 205.3475 80.3755Q208.142 82.066 211.592 82.066Q215.042 82.066 217.8365 80.3755Q220.63100000000003 78.685 222.21800000000002 75.7525Q223.805 72.82 223.805 69.163Z M238.12300000000002 69.163Q238.12300000000002 63.574 240.538 59.227Q242.95300000000003 54.879999999999995 247.3 52.430499999999995Q251.64700000000002 49.980999999999995 257.16700000000003 49.980999999999995Q262.61800000000005 49.980999999999995 266.93050000000005 52.430499999999995Q271.24300000000005 54.879999999999995 273.69250000000005 59.227Q276.14200000000005 63.574 276.14200000000005 69.163Q276.14200000000005 74.68299999999999 273.72700000000003 79.03Q271.312 83.377 266.9995 85.8265Q262.687 88.276 257.16700000000003 88.276Q251.64700000000002 88.276 247.3 85.8265Q242.95300000000003 83.377 240.538 79.03Q238.12300000000002 74.68299999999999 238.12300000000002 69.163ZM269.38000000000005 69.163Q269.38000000000005 65.437 267.82750000000004 62.47Q266.27500000000003 59.503 263.4805 57.847Q260.68600000000004 56.191 257.16700000000003 56.191Q253.64800000000002 56.191 250.85350000000003 57.847Q248.05900000000003 59.503 246.47200000000004 62.47Q244.88500000000002 65.437 244.88500000000002 69.163Q244.88500000000002 72.889 246.47200000000004 75.8215Q248.05900000000003 78.754 250.85350000000003 80.41Q253.64800000000002 82.066 257.16700000000003 82.066Q260.68600000000004 82.066 263.4805 80.41Q266.27500000000003 78.754 267.82750000000004 75.8215Q269.38000000000005 72.889 269.38000000000005 69.163Z" fill="#111A35"/>
  <rect x="287.42" y="44" width="16" height="46" rx="8" fill="url(#markGrad)"/>
  <circle cx="295.42" cy="27" r="8" fill="#2DD4D7"/>
  <rect x="317.42" y="44" width="16" height="46" rx="8" fill="url(#markGrad)"/>
  <circle cx="325.42" cy="27" r="8" fill="#2DD4D7"/>
</svg>